<svg xmlns="http://www.w3.org/2000/svg" viewBox="0 0 920 620" width="100%" height="100%" style="background:#ffffff; font-family:'Segoe UI', Arial, sans-serif;">
  <defs>
    <marker id="ar" viewBox="0 0 10 10" refX="10" refY="5" markerWidth="6" markerHeight="6" orient="auto-start-reverse">
      <path d="M 0 0 L 10 5 L 0 10 z" fill="#475569"/>
    </marker>
  </defs>
  <text x="460" y="30" text-anchor="middle" font-size="18" font-weight="bold" fill="#0f172a">Fig. 3.1 Use Case Diagram — CommerceOS Platform</text>
  <rect x="230" y="50" width="460" height="550" rx="12" fill="#f8fafc" stroke="#2563eb" stroke-width="2" stroke-dasharray="6,4"/>
  <rect x="340" y="42" width="240" height="24" rx="5" fill="#2563eb"/>
  <text x="460" y="58" text-anchor="middle" font-size="12" font-weight="bold" fill="#ffffff">CommerceOS Autonomous Boundary</text>
  <g transform="translate(60, 100)">
    <circle cx="35" cy="20" r="14" fill="#e2e8f0" stroke="#0f172a" stroke-width="2"/>
    <line x1="35" y1="34" x2="35" y2="70" stroke="#0f172a" stroke-width="2"/>
    <line x1="15" y1="48" x2="55" y2="48" stroke="#0f172a" stroke-width="2"/>
    <line x1="35" y1="70" x2="18" y2="100" stroke="#0f172a" stroke-width="2"/>
    <line x1="35" y1="70" x2="52" y2="100" stroke="#0f172a" stroke-width="2"/>
    <text x="35" y="118" text-anchor="middle" font-size="11" font-weight="bold" fill="#0f172a">Operations Manager</text>
  </g>
  <g transform="translate(60, 270)">
    <circle cx="35" cy="20" r="14" fill="#e2e8f0" stroke="#0f172a" stroke-width="2"/>
    <line x1="35" y1="34" x2="35" y2="70" stroke="#0f172a" stroke-width="2"/>
    <line x1="15" y1="48" x2="55" y2="48" stroke="#0f172a" stroke-width="2"/>
    <line x1="35" y1="70" x2="18" y2="100" stroke="#0f172a" stroke-width="2"/>
    <line x1="35" y1="70" x2="52" y2="100" stroke="#0f172a" stroke-width="2"/>
    <text x="35" y="118" text-anchor="middle" font-size="11" font-weight="bold" fill="#0f172a">Domain Admin</text>
    <text x="35" y="132" text-anchor="middle" font-size="9" fill="#64748b">(Orders/Inventory/CS)</text>
  </g>
  <g transform="translate(60, 440)">
    <rect x="8" y="15" width="54" height="54" rx="8" fill="#e0f2fe" stroke="#0284c7" stroke-width="2"/>
    <polygon points="28,32 46,42 28,52" fill="#0284c7"/>
    <text x="35" y="86" text-anchor="middle" font-size="11" font-weight="bold" fill="#0369a1">Replay Engine</text>
    <text x="35" y="99" text-anchor="middle" font-size="9" fill="#64748b">(Simulated Clock T)</text>
  </g>
  <g transform="translate(790, 160)">
    <circle cx="35" cy="20" r="14" fill="#fee2e2" stroke="#dc2626" stroke-width="2"/>
    <line x1="35" y1="34" x2="35" y2="70" stroke="#dc2626" stroke-width="2"/>
    <line x1="15" y1="48" x2="55" y2="48" stroke="#dc2626" stroke-width="2"/>
    <line x1="35" y1="70" x2="18" y2="100" stroke="#dc2626" stroke-width="2"/>
    <line x1="35" y1="70" x2="52" y2="100" stroke="#dc2626" stroke-width="2"/>
    <text x="35" y="118" text-anchor="middle" font-size="11" font-weight="bold" fill="#991b1b">Super Admin</text>
    <text x="35" y="132" text-anchor="middle" font-size="9" fill="#64748b">(HITL Approver)</text>
  </g>
  <g transform="translate(790, 370)">
    <circle cx="35" cy="20" r="14" fill="#fef3c7" stroke="#d97706" stroke-width="2"/>
    <line x1="35" y1="34" x2="35" y2="70" stroke="#d97706" stroke-width="2"/>
    <line x1="15" y1="48" x2="55" y2="48" stroke="#d97706" stroke-width="2"/>
    <line x1="35" y1="70" x2="18" y2="100" stroke="#d97706" stroke-width="2"/>
    <line x1="35" y1="70" x2="52" y2="100" stroke="#d97706" stroke-width="2"/>
    <text x="35" y="118" text-anchor="middle" font-size="11" font-weight="bold" fill="#b45309">Agent Swarm</text>
    <text x="35" y="132" text-anchor="middle" font-size="9" fill="#64748b">(LangGraph ReAct)</text>
  </g>
  <ellipse cx="460" cy="95" rx="140" ry="20" fill="#eff6ff" stroke="#2563eb" stroke-width="1.6"/>
  <text x="460" y="100" text-anchor="middle" font-size="11" font-weight="600" fill="#1e40af">Control Replay Clock &amp; Speed</text>
  <ellipse cx="360" cy="155" rx="115" ry="20" fill="#eff6ff" stroke="#2563eb" stroke-width="1.6"/>
  <text x="360" y="160" text-anchor="middle" font-size="10.5" font-weight="600" fill="#1e40af">View 6-Domain Operations Grid</text>
  <ellipse cx="565" cy="155" rx="110" ry="20" fill="#eff6ff" stroke="#2563eb" stroke-width="1.6"/>
  <text x="565" y="160" text-anchor="middle" font-size="10.5" font-weight="600" fill="#1e40af">Trigger Domain Sweep</text>
  <ellipse cx="460" cy="215" rx="130" ry="20" fill="#f0fdf4" stroke="#16a34a" stroke-width="1.6"/>
  <text x="460" y="220" text-anchor="middle" font-size="10.5" font-weight="600" fill="#166534">Audit Backlog &amp; RMA Eligibility</text>
  <ellipse cx="360" cy="275" rx="110" ry="20" fill="#f0fdf4" stroke="#16a34a" stroke-width="1.6"/>
  <text x="360" y="280" text-anchor="middle" font-size="10.5" font-weight="600" fill="#166534">Monitor Stockouts &amp; ROP/EOQ</text>
  <ellipse cx="565" cy="275" rx="110" ry="20" fill="#f0fdf4" stroke="#16a34a" stroke-width="1.6"/>
  <text x="565" y="280" text-anchor="middle" font-size="10.5" font-weight="600" fill="#166534">Detect Pricing &amp; Margin Leaks</text>
  <ellipse cx="460" cy="335" rx="135" ry="20" fill="#fef2f2" stroke="#dc2626" stroke-width="1.6"/>
  <text x="460" y="340" text-anchor="middle" font-size="10.5" font-weight="600" fill="#991b1b">Resolve Cross-Domain Conflicts</text>
  <ellipse cx="360" cy="395" rx="115" ry="20" fill="#fef2f2" stroke="#dc2626" stroke-width="1.6"/>
  <text x="360" y="400" text-anchor="middle" font-size="10.5" font-weight="600" fill="#991b1b">Evaluate HITL Action Policy</text>
  <ellipse cx="565" cy="395" rx="110" ry="20" fill="#fffbeb" stroke="#d97706" stroke-width="1.6"/>
  <text x="565" y="400" text-anchor="middle" font-size="10.5" font-weight="600" fill="#92400e">Approve / Reject Action Queue</text>
  <ellipse cx="460" cy="460" rx="130" ry="20" fill="#f5f3ff" stroke="#7c3aed" stroke-width="1.6"/>
  <text x="460" y="465" text-anchor="middle" font-size="10.5" font-weight="600" fill="#5b21b6">Query Natural Language Text-to-SQL</text>
  <ellipse cx="460" cy="525" rx="130" ry="20" fill="#faf5ff" stroke="#9333ea" stroke-width="1.6"/>
  <text x="460" y="530" text-anchor="middle" font-size="10.5" font-weight="600" fill="#6b21a8">Generate In-Memory PDF Invoices</text>
  <line x1="140" y1="150" x2="330" y2="100" stroke="#64748b" stroke-width="1.4"/>
  <line x1="140" y1="150" x2="250" y2="155" stroke="#64748b" stroke-width="1.4"/>
  <line x1="140" y1="150" x2="340" y2="215" stroke="#64748b" stroke-width="1.4"/>
  <line x1="140" y1="320" x2="255" y2="275" stroke="#64748b" stroke-width="1.4"/>
  <line x1="140" y1="320" x2="340" y2="460" stroke="#64748b" stroke-width="1.4"/>
  <line x1="140" y1="320" x2="340" y2="525" stroke="#64748b" stroke-width="1.4"/>
  <line x1="130" y1="480" x2="340" y2="105" stroke="#0284c7" stroke-width="1.4"/>
  <line x1="130" y1="480" x2="255" y2="285" stroke="#0284c7" stroke-width="1.4"/>
  <line x1="785" y1="210" x2="675" y2="395" stroke="#dc2626" stroke-width="1.4"/>
  <line x1="785" y1="210" x2="590" y2="525" stroke="#dc2626" stroke-width="1.4"/>
  <line x1="785" y1="420" x2="595" y2="335" stroke="#d97706" stroke-width="1.4"/>
  <line x1="785" y1="420" x2="675" y2="275" stroke="#d97706" stroke-width="1.4"/>
  <line x1="785" y1="420" x2="590" y2="215" stroke="#d97706" stroke-width="1.4"/>
  <line x1="785" y1="420" x2="675" y2="155" stroke="#d97706" stroke-width="1.4"/>
</svg>